<svg width="24" height="24" viewBox="0 0 24 24" fill="none" xmlns="http://www.w3.org/2000/svg">
<path d="M19.7713 21C19.4767 21 19.1707 20.8849 18.9327 20.6663L9.79917 12.0004L18.9327 3.33457C19.42 2.86272 20.2019 2.89725 20.6665 3.39211C21.1311 3.89848 21.0971 4.68105 20.6099 5.1529L13.3914 12.0004L20.6099 18.8479C21.1085 19.3198 21.1311 20.1023 20.6665 20.6087C20.4285 20.8619 20.0999 21 19.7713 21Z" fill="#333333"/>
<path d="M12.9721 21C12.6775 21 12.3715 20.8849 12.1336 20.6663L3 12.0004L12.1336 3.33457C12.6322 2.86272 13.4027 2.89725 13.8673 3.39211C14.332 3.89848 14.298 4.68105 13.8107 5.1529L6.59223 12.0004L13.8107 18.8479C14.3093 19.3198 14.332 20.1023 13.8673 20.6087C13.6294 20.8619 13.3007 21 12.9721 21Z" fill="#333333"/>
</svg>
