<svg width="24" height="24" viewBox="0 0 24 24" fill="none" xmlns="http://www.w3.org/2000/svg">
<path d="M11.0279 21C10.6993 21 10.3706 20.8619 10.1327 20.6087C9.66805 20.1023 9.70204 19.3198 10.1893 18.8479L17.4078 12.0004L10.1893 5.1529C9.70204 4.68105 9.66805 3.89848 10.1327 3.39211C10.5973 2.89725 11.3678 2.86272 11.8664 3.33457L21 12.0004L11.8664 20.6663C11.6285 20.8849 11.3225 21 11.0279 21Z" fill="#333333"/>
<path d="M4.22871 21C3.90009 21 3.57146 20.8619 3.33349 20.6087C2.86888 20.1023 2.90287 19.3198 3.39015 18.8479L10.6086 12.0004L3.39015 5.1529C2.89154 4.68105 2.86888 3.89848 3.33349 3.39211C3.7981 2.89725 4.56867 2.86272 5.06728 3.33457L14.2008 12.0004L5.06728 20.6663C4.82931 20.8849 4.52334 21 4.22871 21Z" fill="#333333"/>
</svg>
