<svg width="24" height="24" viewBox="0 0 24 24" fill="none" xmlns="http://www.w3.org/2000/svg">
<path d="M16.7093 20.9085L11.5272 15.9193C11.157 15.5645 11.1458 14.9695 11.4935 14.5919C11.8413 14.2142 12.4245 14.2028 12.7947 14.5575L16.7205 18.3223L20.6464 14.5575C21.0166 14.2028 21.5998 14.2257 21.9476 14.5919C22.2953 14.9695 22.2841 15.5645 21.9139 15.9193L16.7093 20.9085Z" fill="#333333"/>
<path d="M16.7093 20.1761C16.2158 20.1761 15.8232 19.7756 15.8232 19.2721V3.90401C15.8232 3.40051 16.227 3 16.7093 3C17.1917 3 17.5955 3.40051 17.5955 3.90401V19.2721C17.5955 19.7756 17.2029 20.1761 16.7093 20.1761Z" fill="#333333"/>
<path d="M12.2338 9.70566C12.0095 9.70566 11.7852 9.62556 11.6057 9.45391L7.67984 5.68913L3.75398 9.45391C3.38383 9.80865 2.80055 9.78576 2.45284 9.40814C2.10512 9.03051 2.11633 8.43547 2.48649 8.08074L7.66863 3.09154L12.862 8.08074C13.2321 8.43547 13.2546 9.03051 12.8956 9.40814C12.7162 9.60267 12.4806 9.70566 12.2338 9.70566Z" fill="#333333"/>
<path d="M7.67984 21C7.18631 21 6.79372 20.5995 6.79372 20.096V4.72791C6.79372 4.22441 7.18631 3.8239 7.67984 3.8239C8.17338 3.8239 8.56597 4.22441 8.56597 4.72791V20.096C8.56597 20.5995 8.17338 21 7.67984 21Z" fill="#333333"/>
</svg>
