<svg width="24" height="24" viewBox="0 0 24 24" fill="none" xmlns="http://www.w3.org/2000/svg">
<path d="M12 20L4.81647 13.2124C4.39451 12.8131 4.39451 12.1509 4.81647 11.7517C5.23842 11.3524 5.92796 11.3524 6.36021 11.7517L12 17.0883L17.6398 11.7517C18.0617 11.3524 18.7513 11.3524 19.1835 11.7517C19.6055 12.1509 19.6055 12.8034 19.1835 13.2124L12 20Z" fill="#333333"/>
<path d="M12 19.3378C11.434 19.3378 10.9708 18.8996 10.9708 18.364V4.97383C10.9708 4.43822 11.434 4 12 4C12.566 4 13.0292 4.43822 13.0292 4.97383V18.364C13.0292 18.8996 12.566 19.3378 12 19.3378Z" fill="#333333"/>
</svg>
