<svg width="24" height="24" viewBox="0 0 24 24" fill="none" xmlns="http://www.w3.org/2000/svg">
<path d="M15.1939 13.0933C14.9327 13.0933 14.6596 13.0002 14.4578 12.8026C14.0185 12.4072 13.9947 11.7328 14.4103 11.3142L18.0317 7.54691L14.4103 3.77957C13.9947 3.36097 14.0185 2.68657 14.4459 2.29123C14.8852 1.88427 15.562 1.90752 15.9776 2.33774L21 7.54691L15.9776 12.7561C15.7639 12.9886 15.4789 13.0933 15.1939 13.0933Z" fill="#333333"/>
<path d="M19.1715 8.40735H4.00923C3.52243 8.40735 3.13061 8.02364 3.13061 7.54691C3.13061 7.07017 3.52243 6.68646 4.00923 6.68646H19.1715C19.6583 6.68646 20.0501 7.07017 20.0501 7.54691C20.0501 8.02364 19.6583 8.40735 19.1715 8.40735Z" fill="#333333"/>
<path d="M8.80607 22C8.52111 22 8.23615 21.8837 8.02243 21.6628L3 16.4536L8.02243 11.2445C8.42612 10.8143 9.11478 10.8026 9.55409 11.198C9.98153 11.5933 10.0053 12.2677 9.58971 12.6863L5.96834 16.4536L9.58971 20.221C9.9934 20.6512 9.98153 21.314 9.54222 21.7209C9.34037 21.907 9.06728 22 8.80607 22Z" fill="#333333"/>
<path d="M19.9908 17.3141H4.8285C4.34169 17.3141 3.94987 16.9304 3.94987 16.4536C3.94987 15.9769 4.34169 15.5932 4.8285 15.5932H19.9908C20.4776 15.5932 20.8694 15.9769 20.8694 16.4536C20.8694 16.9304 20.4776 17.3141 19.9908 17.3141Z" fill="#333333"/>
</svg>
