<svg width="24" height="24" viewBox="0 0 24 24" fill="none" xmlns="http://www.w3.org/2000/svg">
<path d="M11.4635 20.5C11.1679 20.5 10.8723 20.3833 10.6423 20.1382L3 12.0044L10.6423 3.85885C11.0912 3.38038 11.8248 3.38038 12.2847 3.85885C12.7336 4.33731 12.7336 5.13086 12.2847 5.60932L6.28467 12.0044L12.2847 18.3994C12.7336 18.8779 12.7336 19.6598 12.2847 20.1499C12.0547 20.3833 11.7591 20.5 11.4635 20.5Z" fill="#333333"/>
<path d="M19.8942 13.1714H4.85036C4.24818 13.1714 3.75547 12.6462 3.75547 12.0044C3.75547 11.3625 4.24818 10.8374 4.85036 10.8374H19.9051C20.5073 10.8374 21 11.3625 21 12.0044C21 12.6462 20.4963 13.1714 19.8942 13.1714Z" fill="#333333"/>
</svg>
