<svg width="24" height="24" viewBox="0 0 24 24" fill="none" xmlns="http://www.w3.org/2000/svg">
<path d="M12.4769 19.5C12.2141 19.5 11.9513 19.397 11.747 19.1808C11.3479 18.7586 11.3479 18.0584 11.747 17.6363L17.0803 11.9936L11.747 6.36116C11.3479 5.93899 11.3479 5.2388 11.747 4.81663C12.146 4.39446 12.7981 4.39446 13.2068 4.81663L20 12.0039L13.2068 19.1911C13.0024 19.397 12.7397 19.5 12.4769 19.5Z" fill="#333333"/>
<path d="M18.3552 13.0336H4.97324C4.43796 13.0336 4 12.5702 4 12.0039C4 11.4375 4.43796 10.9742 4.97324 10.9742H18.3552C18.8905 10.9742 19.3285 11.4375 19.3285 12.0039C19.3285 12.5702 18.8905 13.0336 18.3552 13.0336Z" fill="#333333"/>
</svg>
