<svg width="24" height="24" viewBox="0 0 24 24" fill="none" xmlns="http://www.w3.org/2000/svg">
<path d="M18.4117 12.56C18.1338 12.56 17.8559 12.4626 17.6398 12.2581L12 6.92148L6.36021 12.2581C5.93825 12.6573 5.24871 12.6573 4.81647 12.2581C4.39451 11.8588 4.39451 11.2063 4.81647 10.7973L12 4L19.1835 10.7973C19.6055 11.1966 19.6055 11.8588 19.1835 12.2581C18.9674 12.4528 18.6895 12.56 18.4117 12.56Z" fill="#333333"/>
<path d="M12 20C11.434 20 10.9708 19.5618 10.9708 19.0262V5.64577C10.9708 5.11016 11.434 4.67194 12 4.67194C12.566 4.67194 13.0292 5.11016 13.0292 5.64577V19.0359C13.0292 19.5715 12.566 20 12 20Z" fill="#333333"/>
</svg>
