<svg width="24" height="24" viewBox="0 0 24 24" fill="none" xmlns="http://www.w3.org/2000/svg">
<path d="M10.5682 16.7161C10.2932 16.6698 10.0298 16.5307 9.84651 16.299L6.85682 12.591C6.46735 12.0927 6.53608 11.3627 7.02864 10.9571C7.52119 10.5516 8.24284 10.6327 8.64376 11.1309L10.7285 13.7265L15.2761 7.88644C15.6655 7.38818 16.3872 7.29548 16.8797 7.68946C17.3723 8.08343 17.4639 8.81344 17.0745 9.3117L11.6449 16.299C11.4273 16.5771 11.1065 16.7393 10.7514 16.7393C10.6827 16.7277 10.6254 16.7277 10.5682 16.7161Z" fill="#333333"/>
<path d="M12 22C6.49026 22 2 17.5156 2 12C2 6.48436 6.49026 2 12 2C17.5097 2 22 6.48436 22 12C22 17.5156 17.5097 22 12 22ZM12 3.69177C7.40664 3.69177 3.67239 7.42294 3.67239 12C3.67239 16.5771 7.40664 20.3082 12 20.3082C16.5934 20.3082 20.3276 16.5771 20.3276 12C20.3276 7.42294 16.5934 3.69177 12 3.69177Z" fill="#333333"/>
</svg>
