<svg width="24" height="24" viewBox="0 0 24 24" fill="none" xmlns="http://www.w3.org/2000/svg">
<path d="M19.1165 21H4.88347C3.57313 21 2.5 19.9366 2.5 18.6381V7.10821C2.5 5.79851 3.57313 4.74627 4.88347 4.74627H19.1165C20.4269 4.74627 21.5 5.8097 21.5 7.10821V18.6381C21.5 19.9366 20.4269 21 19.1165 21ZM4.88347 6.33582C4.45422 6.33582 4.10404 6.68284 4.10404 7.10821V18.6381C4.10404 19.0634 4.45422 19.4104 4.88347 19.4104H19.1165C19.5458 19.4104 19.896 19.0634 19.896 18.6381V7.10821C19.896 6.68284 19.5458 6.33582 19.1165 6.33582H4.88347Z" fill="#333333"/>
<path d="M20.698 10.9813H3.30202C2.86147 10.9813 2.5 10.6231 2.5 10.1866C2.5 9.75 2.86147 9.39179 3.30202 9.39179H20.698C21.1385 9.39179 21.5 9.75 21.5 10.1866C21.5 10.6231 21.1385 10.9813 20.698 10.9813Z" fill="#333333"/>
<path d="M16.4845 7.99254C16.0327 7.99254 15.6599 7.62313 15.6599 7.17537V3.81716C15.6599 3.3694 16.0327 3 16.4845 3C16.9364 3 17.3092 3.3694 17.3092 3.81716V7.17537C17.3092 7.62313 16.9477 7.99254 16.4845 7.99254Z" fill="#333333"/>
<path d="M7.44768 7.99254C6.99584 7.99254 6.62307 7.62313 6.62307 7.17537V3.81716C6.62307 3.3694 6.99584 3 7.44768 3C7.89952 3 8.2723 3.3694 8.2723 3.81716V7.17537C8.2723 7.62313 7.91082 7.99254 7.44768 7.99254Z" fill="#333333"/>
</svg>
