<svg width="24" height="24" viewBox="0 0 24 24" fill="none" xmlns="http://www.w3.org/2000/svg">
<path d="M19.2662 20.5C18.943 20.5 18.6322 20.3758 18.3835 20.1397L3.86362 5.62772C3.37879 5.14316 3.37879 4.36041 3.86362 3.87585C4.34845 3.39128 5.13163 3.39128 5.61645 3.87585L20.1364 18.3878C20.6212 18.8724 20.6212 19.6551 20.1364 20.1397C19.9002 20.3758 19.577 20.5 19.2662 20.5Z" fill="#008B77"/>
<path d="M4.74625 20.5C4.42303 20.5 4.11225 20.3758 3.86362 20.1397C3.37879 19.6551 3.37879 18.8724 3.86362 18.3878L18.3835 3.86342C18.8684 3.37886 19.6516 3.37886 20.1364 3.86342C20.6212 4.34798 20.6212 5.13073 20.1364 5.61529L5.62889 20.1273C5.38026 20.3758 5.06947 20.5 4.74625 20.5Z" fill="#008B77"/>
</svg>
