<svg width="24" height="24" viewBox="0 0 24 24" fill="none" xmlns="http://www.w3.org/2000/svg">
<path d="M4.85673 17.3182C4.38206 17.3182 4 16.9432 4 16.4773V4.43182C4 3.09091 5.11143 2 6.47757 2H15.5774C16.0521 2 16.4342 2.375 16.4342 2.84091C16.4342 3.30682 16.0521 3.68182 15.5774 3.68182H6.47757C6.06078 3.68182 5.71346 4.02273 5.71346 4.43182V16.4773C5.71346 16.9432 5.3314 17.3182 4.85673 17.3182Z" fill="#333333"/>
<path d="M17.5224 22H10.1129C8.74674 22 7.63531 20.9091 7.63531 19.5682V8.43182C7.63531 7.09091 8.74674 6 10.1129 6H17.5224C18.8886 6 20 7.09091 20 8.43182V19.5682C20 20.9091 18.8886 22 17.5224 22ZM10.1129 7.68182C9.69609 7.68182 9.34877 8.02273 9.34877 8.43182V19.5682C9.34877 19.9773 9.69609 20.3182 10.1129 20.3182H17.5224C17.9392 20.3182 18.2865 19.9773 18.2865 19.5682V8.43182C18.2865 8.02273 17.9392 7.68182 17.5224 7.68182H10.1129Z" fill="#333333"/>
</svg>
