<svg width="24" height="24" viewBox="0 0 24 24" fill="none" xmlns="http://www.w3.org/2000/svg">
<path d="M17.3017 21.5H6.69834C5.51188 21.5 4.54988 20.4279 4.54988 19.1056V7.34828C4.54988 6.8837 4.89192 6.50251 5.30879 6.50251C5.72565 6.50251 6.0677 6.8837 6.0677 7.34828V19.1056C6.0677 19.4987 6.34561 19.8085 6.69834 19.8085H17.3017C17.6544 19.8085 17.9323 19.4987 17.9323 19.1056V7.34828C17.9323 6.8837 18.2743 6.50251 18.6912 6.50251C19.1081 6.50251 19.4501 6.8837 19.4501 7.34828V19.1056C19.4501 20.416 18.4881 21.5 17.3017 21.5Z" fill="#333333"/>
<path d="M16.6603 7.83668C16.2435 7.83668 15.9014 7.45549 15.9014 6.99091V4.19154H8.08789V6.99091C8.08789 7.45549 7.74584 7.83668 7.32898 7.83668C6.91211 7.83668 6.57007 7.45549 6.57007 6.99091V3.34577C6.57007 2.88119 6.91211 2.5 7.32898 2.5H16.6603C17.0772 2.5 17.4192 2.88119 17.4192 3.34577V6.99091C17.4192 7.45549 17.0879 7.83668 16.6603 7.83668Z" fill="#333333"/>
<path d="M20.1663 7.92006H3.83373C3.37411 7.92006 3 7.50313 3 6.99091C3 6.47868 3.37411 6.06176 3.83373 6.06176H20.1663C20.6259 6.06176 21 6.47868 21 6.99091C21 7.50313 20.6259 7.92006 20.1663 7.92006Z" fill="#333333"/>
<path d="M13.9881 21.4643H10.0012C9.59501 21.4643 9.27435 21.1069 9.27435 20.6542V12.3276C9.27435 11.8749 9.59501 11.5176 10.0012 11.5176C10.4074 11.5176 10.728 11.8749 10.728 12.3276V19.8442H13.2613V12.3276C13.2613 11.8749 13.5819 11.5176 13.9881 11.5176C14.3943 11.5176 14.715 11.8749 14.715 12.3276V20.6542C14.715 21.095 14.3943 21.4643 13.9881 21.4643Z" fill="#333333"/>
</svg>
