<svg width="24" height="24" viewBox="0 0 24 24" fill="none" xmlns="http://www.w3.org/2000/svg">
<path d="M19.1433 8.86364H14.1187C13.3777 8.86364 12.7757 8.28409 12.7757 7.56818V2.84091C12.7757 2.44318 13.1114 2.11364 13.5166 2.11364C13.9219 2.11364 14.2576 2.44318 14.2576 2.84091V7.40909H19.1433C19.5485 7.40909 19.8842 7.73864 19.8842 8.13636C19.8842 8.53409 19.5485 8.86364 19.1433 8.86364Z" fill="#333333"/>
<path d="M17.5224 22H6.47757C5.11143 22 4 20.9091 4 19.5682V4.43182C4 3.09091 5.11143 2 6.47757 2H13.5166C13.9913 2 14.3734 2.375 14.3734 2.84091C14.3734 3.30682 13.9913 3.68182 13.5166 3.68182H6.47757C6.06078 3.68182 5.71346 4.02273 5.71346 4.43182V19.5682C5.71346 19.9886 6.0492 20.3182 6.47757 20.3182H17.5224C17.9508 20.3182 18.2865 19.9886 18.2865 19.5682V8.13636C18.2865 7.67045 18.6686 7.29545 19.1433 7.29545C19.6179 7.29545 20 7.67045 20 8.13636V19.5682C20 20.9091 18.8886 22 17.5224 22Z" fill="#333333"/>
<path d="M19.2127 8.75C19.0391 8.75 18.8654 8.68182 18.7265 8.55682L13.0767 3.27273C12.7988 3.01136 12.7873 2.56818 13.0535 2.29545C13.3198 2.02273 13.7713 2.01136 14.0492 2.27273L19.6874 7.55682C19.9653 7.81818 19.9768 8.26136 19.7106 8.53409C19.5832 8.68182 19.398 8.75 19.2127 8.75Z" fill="#333333"/>
<path d="M15.8205 18.1364H8.15629C7.75109 18.1364 7.41534 17.8068 7.41534 17.4091C7.41534 17.0114 7.75109 16.6818 8.15629 16.6818H15.8321C16.2373 16.6818 16.5731 17.0114 16.5731 17.4091C16.5731 17.8068 16.2373 18.1364 15.8205 18.1364Z" fill="#333333"/>
<path d="M14.6975 14.4886H8.15629C7.75109 14.4886 7.41534 14.1591 7.41534 13.7614C7.41534 13.3636 7.75109 13.0341 8.15629 13.0341H14.6975C15.1027 13.0341 15.4385 13.3636 15.4385 13.7614C15.4385 14.1591 15.1027 14.4886 14.6975 14.4886Z" fill="#333333"/>
<path d="M12.3242 10.8409H8.15629C7.75109 10.8409 7.41534 10.5114 7.41534 10.1136C7.41534 9.71591 7.73951 9.38636 8.15629 9.38636H12.3242C12.7294 9.38636 13.0651 9.71591 13.0651 10.1136C13.0651 10.5114 12.7294 10.8409 12.3242 10.8409Z" fill="#333333"/>
<path d="M10.2055 7.19318H8.15629C7.75109 7.19318 7.41534 6.86364 7.41534 6.46591C7.41534 6.06818 7.75109 5.73864 8.15629 5.73864H10.2055C10.6107 5.73864 10.9465 6.06818 10.9465 6.46591C10.9465 6.86364 10.6107 7.19318 10.2055 7.19318Z" fill="#333333"/>
</svg>
