<svg width="24" height="24" viewBox="0 0 24 24" fill="none" xmlns="http://www.w3.org/2000/svg">
<path d="M11.9943 16.9148L8.03354 13.0928C7.6432 12.7266 7.63172 12.1087 8.01057 11.7311C8.37795 11.3535 8.98641 11.342 9.36526 11.7082L11.9943 14.2371L14.6233 11.7082C15.0021 11.342 15.6221 11.3535 15.9894 11.7311C16.3568 12.1087 16.3453 12.7266 15.9665 13.0928L11.9943 16.9148Z" fill="#333333"/>
<path d="M11.9943 16.48C11.4432 16.48 10.9955 16.0337 10.9955 15.4844V3.99555C10.9955 3.44628 11.4432 3 11.9943 3C12.5453 3 12.9931 3.44628 12.9931 3.99555V15.4844C13.0045 16.0337 12.5568 16.48 11.9943 16.48Z" fill="#333333"/>
<path d="M18.9054 21H5.09456C3.65952 21 2.5 19.8328 2.5 18.4139V14.9466C2.5 14.4088 2.93625 13.9625 3.48731 13.9625C4.03837 13.9625 4.47462 14.4088 4.47462 14.9466V18.4139C4.47462 18.7572 4.75015 19.0318 5.09456 19.0318H18.9054C19.2499 19.0318 19.5254 18.7572 19.5254 18.4139V14.9466C19.5254 14.4088 19.9616 13.9625 20.5127 13.9625C21.0637 13.9625 21.5 14.4088 21.5 14.9466V18.4139C21.5 19.8328 20.3405 21 18.9054 21Z" fill="#333333"/>
</svg>
