<svg width="24" height="24" viewBox="0 0 24 24" fill="none" xmlns="http://www.w3.org/2000/svg">
<path d="M3.28397 21.5C3.07293 21.5 2.873 21.4223 2.7286 21.2668C2.53978 21.078 2.46202 20.8115 2.51756 20.5561L3.47279 15.8366C3.56165 15.4147 3.97262 15.1371 4.40581 15.2148C4.82789 15.3036 5.10557 15.7145 5.02782 16.1476L4.30584 19.7122L7.8713 18.9904C8.29338 18.9126 8.71546 19.1791 8.80431 19.6122C8.89317 20.0342 8.61549 20.4562 8.1823 20.545L3.43947 21.4889C3.38393 21.5 3.3395 21.5 3.28397 21.5Z" fill="#333333"/>
<path d="M8.00459 20.545C7.80465 20.545 7.60472 20.4673 7.44922 20.3118L3.68383 16.5473C3.53944 16.403 3.45058 16.2031 3.45058 15.9921C3.45058 15.7811 3.52833 15.5812 3.68383 15.4369L12.8807 6.24226C13.1917 5.93133 13.6915 5.93133 13.9914 6.24226L17.7568 10.0067C17.9012 10.1511 17.9901 10.351 17.9901 10.562C17.9901 10.7729 17.9123 10.9728 17.7568 11.1172L8.55995 20.3118C8.41556 20.4673 8.21563 20.545 8.00459 20.545ZM5.34993 15.9921L8.00459 18.6461L16.0796 10.5731L13.4361 7.91905L5.34993 15.9921Z" fill="#333333"/>
<path d="M17.2015 11.3504C17.0015 11.3504 16.8016 11.2726 16.6461 11.1172L12.8696 7.35272C12.7252 7.20836 12.6363 7.00847 12.6363 6.79749C12.6363 6.5865 12.7141 6.38662 12.8696 6.24226L16.3795 2.7332C16.6905 2.42227 17.1904 2.42227 17.4903 2.7332L21.2667 6.49766C21.4111 6.64202 21.5 6.84191 21.5 7.05289C21.5 7.26388 21.4222 7.46376 21.2667 7.60812L17.7568 11.1172C17.6013 11.2838 17.4014 11.3504 17.2015 11.3504ZM14.5468 6.79749L17.2015 9.45149L19.6006 7.05289L16.946 4.39889L14.5468 6.79749Z" fill="#333333"/>
</svg>
