<svg width="24" height="24" viewBox="0 0 24 24" fill="none" xmlns="http://www.w3.org/2000/svg">
<path d="M12 22C6.49026 22 2 17.5156 2 12C2 6.48436 6.49026 2 12 2C17.5097 2 22 6.48436 22 12C22 17.5156 17.5097 22 12 22ZM12 3.69177C7.40664 3.69177 3.67239 7.42294 3.67239 12C3.67239 16.5771 7.40664 20.3082 12 20.3082C16.5934 20.3082 20.3276 16.5771 20.3276 12C20.3276 7.42294 16.5934 3.69177 12 3.69177Z" fill="#333333"/>
<path d="M15.4364 16.5191C15.173 16.5191 14.9095 16.4148 14.7033 16.2178L7.83047 9.26535C7.42955 8.85979 7.42955 8.1993 7.83047 7.79374C8.23139 7.38818 8.88431 7.38818 9.28522 7.79374L16.1581 14.7462C16.559 15.1518 16.559 15.8123 16.1581 16.2178C15.9633 16.4148 15.6999 16.5191 15.4364 16.5191Z" fill="#333333"/>
<path d="M8.56357 16.5191C8.30011 16.5191 8.03666 16.4148 7.83047 16.2178C7.42955 15.8123 7.42955 15.1518 7.83047 14.7462L14.7033 7.79374C15.1042 7.38818 15.7572 7.38818 16.1581 7.79374C16.559 8.1993 16.559 8.85979 16.1581 9.26535L9.28522 16.2178C9.09049 16.4148 8.82703 16.5191 8.56357 16.5191Z" fill="#333333"/>
</svg>
