<svg width="24" height="24" viewBox="0 0 24 24" fill="none" xmlns="http://www.w3.org/2000/svg">
<path d="M18.7721 21C18.4775 21 18.1715 20.8849 17.9336 20.6663L8.8 12.0004L17.9336 3.33457C18.4208 2.86272 19.2027 2.89725 19.6673 3.39211C20.132 3.89848 20.098 4.68105 19.6107 5.1529L12.3922 12.0004L19.6107 18.8479C20.1093 19.3198 20.132 20.1023 19.6673 20.6087C19.4294 20.8619 19.1007 21 18.7721 21Z" fill="#333333"/>
<path d="M4 4.25C4 3.55964 4.55964 3 5.25 3C5.94036 3 6.5 3.55964 6.5 4.25V19.75C6.5 20.4404 5.94036 21 5.25 21C4.55964 21 4 20.4404 4 19.75V4.25Z" fill="#333333"/>
</svg>
