<svg width="24" height="24" viewBox="0 0 24 24" fill="none" xmlns="http://www.w3.org/2000/svg">
<path d="M11.9943 21.9885C11.8685 21.9885 11.7427 21.9539 11.6284 21.8848C9.11264 20.3525 7.29445 17.9678 6.494 15.1452C6.20812 14.1083 6.05946 13.0484 6.05946 11.9885C6.05946 10.7558 6.25386 9.54611 6.63122 8.40556C7.48885 5.77883 9.27273 3.53229 11.6398 2.10372C11.9714 1.89635 12.4059 2.01156 12.6118 2.34566C12.8176 2.67976 12.7033 3.11755 12.3716 3.32492C10.2905 4.58068 8.73528 6.55072 7.98056 8.85486C7.63751 9.85717 7.46598 10.9171 7.46598 12C7.46598 12.9217 7.59177 13.8549 7.85477 14.765C8.55232 17.2304 10.1532 19.3272 12.3602 20.6751C12.6918 20.8825 12.8062 21.3203 12.6003 21.6544C12.4631 21.8733 12.2344 21.9885 11.9943 21.9885Z" fill="#333333"/>
<path d="M12.0172 21.9885C11.6284 21.9885 11.3082 21.6659 11.3082 21.2742C11.3082 20.8825 11.6284 20.5599 12.0172 20.5599C15.7107 20.5599 18.9697 18.2097 20.1361 14.7304C20.4448 13.8549 20.5935 12.9332 20.5935 12C20.5935 10.9171 20.3991 9.88021 20.0103 8.90095C18.7181 5.57146 15.5735 3.42861 12.0172 3.42861C11.6284 3.42861 11.3082 3.10603 11.3082 2.71432C11.3082 2.32262 11.6169 2.00004 12.0057 2.00004H12.0172C16.1681 2.00004 19.8159 4.50003 21.3253 8.37099C21.7713 9.51155 22 10.7212 22 11.9885C22 13.0945 21.817 14.1659 21.4626 15.1797C20.1132 19.2581 16.3168 21.9885 12.0172 21.9885Z" fill="#333333"/>
<path d="M12.0057 21.9885C7.69468 21.9885 3.88679 19.2465 2.53745 15.1797C2.18296 14.1774 2 13.0945 2 12C2 10.7327 2.2287 9.51155 2.67467 8.37099C4.18411 4.50003 7.84334 2.00004 11.9943 2.00004C12.3831 2.00004 12.7033 2.32262 12.7033 2.71432C12.7033 3.10603 12.3831 3.42861 11.9943 3.42861C8.43796 3.42861 5.29331 5.57146 4.00114 8.90095C3.61235 9.86869 3.41795 10.9171 3.41795 12C3.41795 12.9447 3.56661 13.8549 3.87536 14.7304C5.04174 18.2327 8.30074 20.5714 11.9943 20.5714C12.3831 20.5714 12.7033 20.894 12.7033 21.2857C12.7033 21.6774 12.3945 21.9885 12.0057 21.9885Z" fill="#333333"/>
<path d="M12.0057 22C11.6169 22 11.2967 21.6889 11.2967 21.2857C11.2967 20.9977 11.4683 20.7442 11.7084 20.629C13.8811 19.2811 15.4591 17.2074 16.1567 14.7535C16.4082 13.8433 16.5455 12.9102 16.5455 11.9885C16.5455 10.9056 16.3739 9.84565 16.0423 8.85486C15.2876 6.55072 13.7324 4.5922 11.6741 3.33644C11.4568 3.22123 11.2967 2.9793 11.2967 2.7028C11.2853 2.32262 11.6055 2.00004 11.9943 2.00004H12.0057C12.1315 2.00004 12.2573 2.0346 12.3716 2.10372C14.7387 3.53229 16.5226 5.77883 17.3802 8.41708C17.7576 9.55763 17.952 10.7673 17.952 12C17.952 13.0599 17.8033 14.1198 17.5174 15.1567C16.717 17.9793 14.8988 20.3641 12.3831 21.8963C12.3488 21.9194 12.3145 21.9309 12.2802 21.9424C12.2001 21.977 12.0972 22 12.0057 22Z" fill="#333333"/>
<path d="M20.6621 9.35026H3.33791C2.94911 9.35026 2.62893 9.02768 2.62893 8.63597C2.62893 8.24427 2.94911 7.92169 3.33791 7.92169H20.6621C21.0509 7.92169 21.3711 8.24427 21.3711 8.63597C21.3711 9.02768 21.0623 9.35026 20.6621 9.35026Z" fill="#333333"/>
<path d="M20.7993 15.6751H3.20069C2.81189 15.6751 2.49171 15.3525 2.49171 14.9608C2.49171 14.5691 2.81189 14.2466 3.20069 14.2466H20.7993C21.1881 14.2466 21.5083 14.5691 21.5083 14.9608C21.5083 15.3525 21.1995 15.6751 20.7993 15.6751Z" fill="#333333"/>
</svg>
