<svg width="24" height="24" viewBox="0 0 24 24" fill="none" xmlns="http://www.w3.org/2000/svg">
<path d="M12 22C6.49026 22 2 17.5156 2 12C2 6.48436 6.49026 2 12 2C17.5097 2 22 6.48436 22 12C22 17.5156 17.5097 22 12 22ZM12 3.69177C7.40664 3.69177 3.67239 7.42294 3.67239 12C3.67239 16.5771 7.40664 20.3082 12 20.3082C16.5934 20.3082 20.3276 16.5771 20.3276 12C20.3276 7.42294 16.5934 3.69177 12 3.69177Z" fill="#333333"/>
<path d="M12.0115 17.5388C12.5176 17.5388 12.9278 17.1238 12.9278 16.6118C12.9278 16.0999 12.5176 15.6848 12.0115 15.6848C11.5054 15.6848 11.0951 16.0999 11.0951 16.6118C11.0951 17.1238 11.5054 17.5388 12.0115 17.5388Z" fill="#333333"/>
<path d="M12.0115 17.6547C11.4502 17.6547 10.9805 17.1912 10.9805 16.6118C10.9805 16.0324 11.4387 15.5689 12.0115 15.5689C12.5727 15.5689 13.0424 16.0324 13.0424 16.6118C13.0424 17.1912 12.5842 17.6547 12.0115 17.6547ZM12.0115 15.8123C11.5762 15.8123 11.2096 16.1715 11.2096 16.6234C11.2096 17.0753 11.5647 17.4345 12.0115 17.4345C12.4467 17.4345 12.8133 17.0753 12.8133 16.6234C12.8133 16.1715 12.4582 15.8123 12.0115 15.8123Z" fill="#333333"/>
<path d="M12.0115 6.46118C10.3047 6.46118 8.87285 7.64311 8.47194 9.24218C8.34593 9.74044 8.76976 10.1576 9.27377 10.1576C9.77778 10.1576 10.1672 9.71727 10.4078 9.27694C10.7171 8.70915 11.3242 8.31518 12.0115 8.31518C13.0195 8.31518 13.8328 9.14948 13.8328 10.1576C13.8328 11.7914 11.6907 11.803 11.1982 13.854C11.0836 14.3523 11.5074 14.7694 12.0115 14.7694C12.5155 14.7694 12.9049 14.3407 13.1226 13.8772C13.7526 12.5562 15.6655 12.0811 15.6655 10.1576C15.6655 8.11819 14.0275 6.46118 12.0115 6.46118Z" fill="#333333"/>
<path d="M12.0115 14.8853C11.7022 14.8853 11.4158 14.7462 11.244 14.5145C11.0836 14.3175 11.0378 14.0626 11.0951 13.8192C11.3585 12.7416 12.0458 12.2086 12.6529 11.7335C13.2257 11.2816 13.7297 10.8992 13.7297 10.146C13.7297 9.19583 12.9622 8.41947 12.0229 8.41947C11.4044 8.41947 10.8202 8.76709 10.5223 9.32329C10.3162 9.6825 9.90378 10.2735 9.27377 10.2735C8.96449 10.2735 8.67812 10.1344 8.5063 9.90267C8.35739 9.70568 8.30011 9.46234 8.36884 9.20742C8.79267 7.51564 10.2932 6.34531 12.0229 6.34531C14.0962 6.34531 15.7915 8.04867 15.7915 10.1576C15.7915 11.3975 15.047 12.0463 14.3253 12.6837C13.8786 13.0776 13.4548 13.4368 13.2257 13.9235C12.9393 14.5261 12.4926 14.8853 12.0115 14.8853ZM12.0115 8.18772C13.0767 8.18772 13.9473 9.06837 13.9473 10.146C13.9473 11.0151 13.3746 11.4554 12.7789 11.9189C12.1718 12.394 11.5418 12.8806 11.3013 13.8656C11.2554 14.0394 11.3013 14.2132 11.4044 14.3638C11.5418 14.5377 11.7594 14.6419 12 14.6419C12.5727 14.6419 12.9164 14.0046 13.008 13.8192C13.26 13.2862 13.7182 12.8922 14.1535 12.4983C14.8293 11.8957 15.5395 11.27 15.5395 10.146C15.5395 8.17613 13.9588 6.56547 12 6.56547C10.3849 6.56547 8.97594 7.67787 8.57503 9.25377C8.54066 9.43917 8.57503 9.61298 8.68958 9.76361C8.82703 9.93743 9.04467 10.0417 9.27377 10.0417C9.78923 10.0417 10.1443 9.52028 10.3162 9.219C10.6598 8.58169 11.3013 8.18772 12.0115 8.18772Z" fill="#333333"/>
</svg>
