<svg width="24" height="24" viewBox="0 0 24 24" fill="none" xmlns="http://www.w3.org/2000/svg">
<path d="M21.1204 13.5878H20.0319C19.5481 13.5878 19.1523 13.2003 19.1523 12.7266C19.1523 12.253 19.5481 11.8654 20.0319 11.8654H21.1204C21.6042 11.8654 22 12.253 22 12.7266C22 13.2003 21.6042 13.5878 21.1204 13.5878Z" fill="#008B77"/>
<path d="M18.0088 7.75326C17.7779 7.75326 17.558 7.66714 17.3821 7.4949C17.0412 7.16119 17.0412 6.61218 17.3931 6.27847L18.2067 5.49263C18.5476 5.15892 19.1083 5.15892 19.4491 5.5034C19.79 5.83711 19.79 6.38612 19.4382 6.71983L18.6245 7.50567C18.4596 7.66714 18.2287 7.75326 18.0088 7.75326Z" fill="#008B77"/>
<path d="M18.0528 19.4439C17.8329 19.4439 17.602 19.3578 17.4371 19.1963L16.7664 18.5397C16.4255 18.2059 16.4145 17.6569 16.7554 17.3232C17.0962 16.9895 17.657 16.9788 17.9978 17.3232L18.6685 17.9799C19.0093 18.3136 19.0203 18.8626 18.6795 19.1963C18.5036 19.3578 18.2837 19.4439 18.0528 19.4439Z" fill="#008B77"/>
<path d="M12.0055 5.14816C11.5217 5.14816 11.1259 4.76062 11.1259 4.28697V3.36119C11.1259 2.88754 11.5107 2.5 12.0055 2.5C12.5003 2.5 12.8851 2.88754 12.8851 3.36119V4.28697C12.8851 4.76062 12.4893 5.14816 12.0055 5.14816Z" fill="#008B77"/>
<path d="M5.94722 19.4439C5.71633 19.4439 5.49643 19.3578 5.32051 19.1856C4.97966 18.8518 4.97966 18.3028 5.3315 17.9691L6.0022 17.3125C6.34305 16.9788 6.90379 16.9788 7.24464 17.3125C7.58549 17.6462 7.58549 18.1952 7.23364 18.5289L6.56295 19.1856C6.39802 19.3686 6.16712 19.4439 5.94722 19.4439Z" fill="#008B77"/>
<path d="M5.9912 7.75326C5.7713 7.75326 5.54041 7.66714 5.37548 7.50567L4.56185 6.70907C4.21001 6.37535 4.21001 5.82635 4.55085 5.49263C4.8917 5.14816 5.45245 5.14816 5.79329 5.48187L6.60693 6.26771C6.95877 6.61218 6.95877 7.16119 6.61792 7.4949C6.442 7.66714 6.2221 7.75326 5.9912 7.75326Z" fill="#008B77"/>
<path d="M3.96811 13.5878H2.8796C2.39582 13.5878 2 13.2003 2 12.7266C2 12.253 2.39582 11.8654 2.8796 11.8654H3.96811C4.4519 11.8654 4.84772 12.253 4.84772 12.7266C4.84772 13.2003 4.4519 13.5878 3.96811 13.5878Z" fill="#008B77"/>
<path d="M14.1165 19.5839H9.65256C9.31171 19.5839 9.02584 19.304 9.02584 18.9703C9.02584 18.6365 9.30071 18.3567 9.65256 18.3567H14.1165C14.4574 18.3567 14.7433 18.6365 14.7433 18.9703C14.7433 19.304 14.4684 19.5839 14.1165 19.5839Z" fill="#008B77"/>
<path d="M12.9951 21.5H10.7631C10.4222 21.5 10.1363 21.2201 10.1363 20.8864C10.1363 20.5527 10.4112 20.2728 10.7631 20.2728H12.9951C13.3359 20.2728 13.6218 20.5527 13.6218 20.8864C13.6218 21.2201 13.3469 21.5 12.9951 21.5Z" fill="#008B77"/>
<path d="M14.1605 17.8076C13.7427 17.8076 13.4019 17.4847 13.3909 17.0756C13.3689 15.9884 14.6003 14.8796 14.9742 14.5674C15.7218 13.8246 16.1616 12.7912 16.1616 11.6932C16.1616 9.40028 14.2375 7.53796 11.8736 7.53796C9.50962 7.53796 7.58549 9.40028 7.58549 11.6932C7.58549 12.7912 8.02529 13.8354 8.82793 14.6212C9.15778 14.8904 10.3892 15.9884 10.3672 17.0756C10.3562 17.4955 9.98241 17.8076 9.58659 17.8076C9.15778 17.7969 8.82793 17.4524 8.82793 17.0433C8.82793 16.8173 8.31116 16.1606 7.7834 15.7193C6.65091 14.6105 6.04618 13.1895 6.04618 11.6932C6.04618 8.57139 8.663 6.03088 11.8736 6.03088C15.0841 6.03088 17.7009 8.57139 17.7009 11.6932C17.7009 13.2003 17.0962 14.6105 16.0077 15.6762C15.436 16.1606 14.9192 16.8173 14.9192 17.0433C14.9302 17.4632 14.5893 17.8076 14.1605 17.8076C14.1715 17.8076 14.1715 17.8076 14.1605 17.8076Z" fill="#008B77"/>
</svg>
