<svg width="24" height="24" viewBox="0 0 24 24" fill="none" xmlns="http://www.w3.org/2000/svg">
<path d="M12 22C6.49026 22 2 17.5156 2 12C2 6.48436 6.49026 2 12 2C17.5097 2 22 6.48436 22 12C22 17.5156 17.5097 22 12 22ZM12 3.69177C7.40664 3.69177 3.67239 7.42294 3.67239 12C3.67239 16.5771 7.40664 20.3082 12 20.3082C16.5934 20.3082 20.3276 16.5771 20.3276 12C20.3276 7.42294 16.5934 3.69177 12 3.69177Z" fill="#333333"/>
<path d="M12 8.52375C12.639 8.52375 13.1569 7.99978 13.1569 7.35342C13.1569 6.70706 12.639 6.18308 12 6.18308C11.361 6.18308 10.8431 6.70706 10.8431 7.35342C10.8431 7.99978 11.361 8.52375 12 8.52375Z" fill="#333333"/>
<path d="M12 8.63963C11.3013 8.63963 10.7285 8.06025 10.7285 7.35342C10.7285 6.64658 11.3013 6.06721 12 6.06721C12.6987 6.06721 13.2715 6.64658 13.2715 7.35342C13.2715 8.06025 12.6987 8.63963 12 8.63963ZM12 6.29896C11.4273 6.29896 10.9576 6.77404 10.9576 7.35342C10.9576 7.93279 11.4273 8.40788 12 8.40788C12.5727 8.40788 13.0424 7.93279 13.0424 7.35342C13.0424 6.77404 12.5727 6.29896 12 6.29896Z" fill="#333333"/>
<path fill-rule="evenodd" clip-rule="evenodd" d="M12 10.0185C11.3585 10.0185 10.8431 10.54 10.8431 11.1889V16.6582C10.8431 17.3071 11.3585 17.8285 12 17.8285C12.6415 17.8285 13.1569 17.3071 13.1569 16.6582V11.1773C13.1569 10.54 12.6415 10.0185 12 10.0185Z" fill="#333333"/>
<path d="M12 17.898C11.3127 17.898 10.7629 17.3302 10.7629 16.6466V11.1773C10.7629 10.482 11.3242 9.92584 12 9.92584C12.6758 9.92584 13.2371 10.4936 13.2371 11.1773V16.6466C13.2371 17.3418 12.6873 17.898 12 17.898ZM12 10.0997C11.4158 10.0997 10.9347 10.5863 10.9347 11.1773V16.6466C10.9347 17.2375 11.4158 17.7242 12 17.7242C12.5842 17.7242 13.0653 17.2375 13.0653 16.6466V11.1773C13.0653 10.5863 12.5842 10.0997 12 10.0997Z" fill="#333333"/>
</svg>
