<svg width="24" height="24" viewBox="0 0 24 24" fill="none" xmlns="http://www.w3.org/2000/svg">
<path d="M5.22871 21C4.90009 21 4.57146 20.8619 4.33349 20.6087C3.86888 20.1023 3.90287 19.3198 4.39015 18.8479L11.6086 12.0004L4.39015 5.1529C3.89154 4.68105 3.86888 3.89848 4.33349 3.39211C4.7981 2.89725 5.56867 2.86272 6.06728 3.33457L15.2008 12.0004L6.06728 20.6663C5.82931 20.8849 5.52334 21 5.22871 21Z" fill="#333333"/>
<path d="M17.5 4.25C17.5 3.55964 18.0596 3 18.75 3C19.4404 3 20 3.55964 20 4.25V19.75C20 20.4404 19.4404 21 18.75 21C18.0596 21 17.5 20.4404 17.5 19.75V4.25Z" fill="#333333"/>
</svg>
