<svg width="24" height="24" viewBox="0 0 24 24" fill="none" xmlns="http://www.w3.org/2000/svg">
<path d="M7.57751 21C6.40495 21 5.23238 20.5489 4.34169 19.6579C3.47354 18.8008 3 17.6504 3 16.4323C3 15.2143 3.47354 14.0639 4.34169 13.1955L7.85938 9.67669C9.64078 7.89474 12.5496 7.89474 14.331 9.67669L12.9668 11.0414C11.9408 10.015 10.2722 10.015 9.23489 11.0414L5.70592 14.5714C5.20983 15.0677 4.93924 15.7331 4.93924 16.4323C4.93924 17.1316 5.20983 17.797 5.70592 18.2932C6.73191 19.3196 8.40056 19.3196 9.43783 18.2932L10.3283 17.4025C10.7082 17.0224 11.3243 17.0224 11.7043 17.4025C12.084 17.7823 12.084 18.3981 11.7043 18.778L10.8133 19.6692C9.92264 20.5602 8.75008 21 7.57751 21Z" fill="#333333"/>
<path d="M12.8992 15.6767C11.7266 15.6767 10.554 15.2256 9.66333 14.3346L11.0388 12.9586C12.0648 13.985 13.7335 13.985 14.7707 12.9586L18.2884 9.43985C19.3144 8.41353 19.3144 6.74436 18.2884 5.70677C17.2963 4.71429 15.56 4.71429 14.5565 5.70677L13.6604 6.60317C13.2836 6.98009 12.6726 6.98009 12.2957 6.60317C11.9191 6.22641 11.9191 5.61569 12.2957 5.23894L13.1923 4.34211C14.0604 3.47368 15.2105 3 16.4281 3C17.6458 3 18.7958 3.47368 19.664 4.34211C21.4454 6.12406 21.4454 9.03383 19.664 10.8158L16.135 14.3346C15.2443 15.2256 14.0717 15.6767 12.8992 15.6767Z" fill="#333333"/>
</svg>
