<svg width="24" height="24" viewBox="0 0 24 24" fill="none" xmlns="http://www.w3.org/2000/svg">
<path d="M14.9261 3.48896C12.8597 2.7785 10.6053 2.84414 8.58364 3.67363C6.562 4.50313 4.9112 6.03981 3.93926 7.99695C2.96732 9.9541 2.74064 12.198 3.30151 14.31C3.86239 16.422 5.17249 18.2578 6.98739 19.4748C8.80229 20.6919 10.998 21.2071 13.1648 20.9243C15.3316 20.6415 17.3215 19.58 18.7633 17.9379C20.205 16.2957 21 14.1852 21 12V11.5263H18.6105V12C18.6105 13.605 18.0266 15.1552 16.9676 16.3614C15.9087 17.5675 14.4471 18.3472 12.8556 18.5549C11.264 18.7626 9.65128 18.3842 8.31824 17.4903C6.9852 16.5963 6.02293 15.2479 5.61097 13.6967C5.19901 12.1454 5.36551 10.4973 6.07939 9.05976C6.79328 7.62224 8.00579 6.49355 9.49068 5.88428C10.9756 5.27502 12.6314 5.22681 14.1492 5.74864C15.6671 6.27048 16.9432 7.32671 17.7395 8.72026L17.9745 9.13154L20.0492 7.94601L19.8142 7.53474C18.73 5.63746 16.9926 4.19942 14.9261 3.48896Z" fill="#333333"/>
</svg>
