<svg width="24" height="24" viewBox="0 0 24 24" fill="none" xmlns="http://www.w3.org/2000/svg">
<path d="M17.4079 21.5H6.59214C4.33979 21.5 2.5 19.6483 2.5 17.3813V13.2289C2.5 10.9619 4.33979 9.11016 6.59214 9.11016H17.4079C19.6602 9.11016 21.5 10.9619 21.5 13.2289V17.3813C21.5 19.6483 19.6602 21.5 17.4079 21.5ZM6.59214 10.614C5.16491 10.614 3.99413 11.7812 3.99413 13.2289V17.3813C3.99413 18.829 5.16491 19.9962 6.59214 19.9962H17.4079C18.8351 19.9962 20.0059 18.829 20.0059 17.3813V13.2289C20.0059 11.7812 18.8351 10.614 17.4079 10.614H6.59214Z" fill="#333333"/>
<path d="M16.0587 10.614H7.94131C7.52876 10.614 7.19425 10.2773 7.19425 9.86208V7.03396C7.19425 4.53131 9.21244 2.5 11.7101 2.5H12.3011C14.7876 2.5 16.8057 4.53131 16.8057 7.03396V9.85086C16.8057 10.2773 16.4712 10.614 16.0587 10.614ZM8.68838 9.11016H15.3116V7.03396C15.3116 5.36178 13.9624 3.99262 12.2899 3.99262H11.7101C10.0487 3.99262 8.68838 5.35056 8.68838 7.03396V9.11016Z" fill="#333333"/>
<path d="M12 18.3464C11.5651 18.3464 11.2083 17.9873 11.2083 17.5496V13.0605C11.2083 12.6229 11.5651 12.2637 12 12.2637C12.4349 12.2637 12.7917 12.6229 12.7917 13.0605V17.5496C12.7917 17.9873 12.4349 18.3464 12 18.3464Z" fill="#333333"/>
</svg>
