<svg width="24" height="24" viewBox="0 0 24 24" fill="none" xmlns="http://www.w3.org/2000/svg">
<path d="M20.0248 20H3.9752C3.43473 20 3 19.5397 3 18.9673C3 18.395 3.43473 17.9347 3.9752 17.9347H20.0248C20.5653 17.9347 21 18.395 21 18.9673C21 19.5397 20.5653 20 20.0248 20Z" fill="#008B77"/>
<path d="M20.0248 13.0327H3.9752C3.43473 13.0327 3 12.5723 3 12C3 11.4277 3.43473 10.9673 3.9752 10.9673H20.0248C20.5653 10.9673 21 11.4277 21 12C21 12.5723 20.5653 13.0327 20.0248 13.0327Z" fill="#008B77"/>
<path d="M20.0248 6.06532H3.9752C3.43473 6.06532 3 5.60498 3 5.03266C3 4.46034 3.43473 4 3.9752 4H20.0248C20.5653 4 21 4.46034 21 5.03266C21 5.60498 20.5653 6.06532 20.0248 6.06532Z" fill="#008B77"/>
</svg>
