<svg width="24" height="24" viewBox="0 0 24 24" fill="none" xmlns="http://www.w3.org/2000/svg">
<path d="M12 7.76525C10.344 7.76525 9 6.4649 9 4.87687C9 3.28884 10.344 2 12 2C13.6559 2 14.9999 3.28884 14.9999 4.87687C14.9999 6.4649 13.6559 7.76525 12 7.76525ZM12 3.51899C11.22 3.51899 10.584 4.12888 10.584 4.87687C10.584 5.62486 11.22 6.23475 12 6.23475C12.78 6.23475 13.4279 5.63636 13.4279 4.87687C13.4279 4.12888 12.7919 3.51899 12 3.51899Z" fill="#333333"/>
<path d="M12 14.8769C10.344 14.8769 9 13.588 9 12C9 10.412 10.344 9.12313 12 9.12313C13.6559 9.12313 14.9999 10.412 14.9999 12C15.0119 13.588 13.6559 14.8769 12 14.8769ZM12 10.6421C11.22 10.6421 10.584 11.252 10.584 12C10.584 12.748 11.22 13.3579 12 13.3579C12.78 13.3579 13.4159 12.748 13.4159 12C13.4159 11.252 12.7919 10.6421 12 10.6421Z" fill="#333333"/>
<path d="M12 22C10.344 22 9 20.7112 9 19.1231C9 17.5351 10.344 16.2463 12 16.2463C13.6559 16.2463 14.9999 17.5351 14.9999 19.1231C15.0119 20.7112 13.6559 22 12 22ZM12 17.7537C11.22 17.7537 10.584 18.3636 10.584 19.1116C10.584 19.8596 11.22 20.4695 12 20.4695C12.78 20.4695 13.4159 19.8596 13.4159 19.1116C13.4159 18.3636 12.7919 17.7537 12 17.7537Z" fill="#333333"/>
</svg>
