<svg width="24" height="24" viewBox="0 0 24 24" fill="none" xmlns="http://www.w3.org/2000/svg">
<path d="M19.1231 15C17.5351 15 16.2463 13.6587 16.2463 12.006C16.2463 10.3533 17.5351 9.01198 19.1231 9.01198C20.7112 9.01198 22 10.3533 22 12.006C22 13.6467 20.7112 15 19.1231 15ZM19.1231 10.5808C18.3751 10.5808 17.7652 11.2156 17.7652 11.994C17.7652 12.7725 18.3751 13.4072 19.1231 13.4072C19.8711 13.4072 20.481 12.7725 20.481 11.994C20.481 11.2156 19.8711 10.5808 19.1231 10.5808Z" fill="#333333"/>
<path d="M12 15C10.412 15 9.12313 13.6587 9.12313 12.006C9.12313 10.3533 10.412 9 12 9C13.588 9 14.8769 10.3413 14.8769 11.994C14.8769 13.6467 13.588 15 12 15ZM12 10.5808C11.252 10.5808 10.6421 11.2156 10.6421 11.994C10.6421 12.7725 11.252 13.4072 12 13.4072C12.748 13.4072 13.3579 12.7844 13.3579 11.994C13.3579 11.2036 12.748 10.5808 12 10.5808Z" fill="#333333"/>
<path d="M4.87687 15C3.28884 15 2 13.6467 2 11.994C2 10.3413 3.28884 9 4.87687 9C6.4649 9 7.75374 10.3413 7.75374 11.994C7.75374 13.6467 6.4649 15 4.87687 15ZM4.87687 10.5808C4.12888 10.5808 3.51899 11.2156 3.51899 11.994C3.51899 12.7725 4.12888 13.4192 4.87687 13.4192C5.62486 13.4192 6.24626 12.7844 6.24626 11.994C6.24626 11.2036 5.63636 10.5808 4.87687 10.5808Z" fill="#333333"/>
</svg>
