<svg width="24" height="24" viewBox="0 0 24 24" fill="none" xmlns="http://www.w3.org/2000/svg">
<path d="M12 22C6.49026 22 2 17.5156 2 12C2 6.48436 6.49026 2 12 2C17.5097 2 22 6.48436 22 12C22 17.5156 17.5097 22 12 22ZM12 3.69177C7.40664 3.69177 3.67239 7.42294 3.67239 12C3.67239 16.5771 7.40664 20.3082 12 20.3082C16.5934 20.3082 20.3276 16.5771 20.3276 12C20.3276 7.42294 16.5934 3.69177 12 3.69177Z" fill="#666666"/>
<path d="M12 17.8169C12.639 17.8169 13.1569 17.2929 13.1569 16.6466C13.1569 16.0002 12.639 15.4762 12 15.4762C11.361 15.4762 10.8431 16.0002 10.8431 16.6466C10.8431 17.2929 11.361 17.8169 12 17.8169Z" fill="#666666"/>
<path d="M12 17.9328C11.3013 17.9328 10.7285 17.3534 10.7285 16.6466C10.7285 15.9397 11.3013 15.3604 12 15.3604C12.6987 15.3604 13.2715 15.9397 13.2715 16.6466C13.2715 17.3534 12.6987 17.9328 12 17.9328ZM12 15.5921C11.4273 15.5921 10.9576 16.0672 10.9576 16.6466C10.9576 17.226 11.4273 17.701 12 17.701C12.5727 17.701 13.0424 17.226 13.0424 16.6466C13.0424 16.0672 12.5727 15.5921 12 15.5921Z" fill="#666666"/>
<path fill-rule="evenodd" clip-rule="evenodd" d="M12 13.9815C12.6415 13.9815 13.1569 13.46 13.1569 12.8111V7.35342C13.1569 6.70452 12.6415 6.18308 12 6.18308C11.3585 6.18308 10.8431 6.70452 10.8431 7.35342V12.8227C10.8431 13.46 11.3585 13.9815 12 13.9815Z" fill="#666666"/>
<path d="M12 14.0742C11.3127 14.0742 10.7629 13.5064 10.7629 12.8227V7.35342C10.7629 6.65817 11.3242 6.10197 12 6.10197C12.6758 6.10197 13.2371 6.66976 13.2371 7.35342V12.8227C13.2371 13.5064 12.6873 14.0742 12 14.0742ZM12 6.27578C11.4158 6.27578 10.9347 6.76246 10.9347 7.35342V12.8227C10.9347 13.4137 11.4158 13.9003 12 13.9003C12.5842 13.9003 13.0653 13.4137 13.0653 12.8227V7.35342C13.0653 6.76246 12.5842 6.27578 12 6.27578Z" fill="#666666"/>
</svg>
