<svg width="24" height="24" viewBox="0 0 24 24" fill="none" xmlns="http://www.w3.org/2000/svg">
<path d="M5.63736 15.6456L2.26374 12.1481C1.91209 11.7835 1.91209 11.1911 2.26374 10.8266C2.61538 10.462 3.18681 10.462 3.53846 10.8266L5.63736 13.0025L7.73626 10.8266C8.08791 10.462 8.65934 10.462 9.01099 10.8266C9.36264 11.1911 9.36264 11.7835 9.01099 12.1481L5.63736 15.6456Z" fill="#333333"/>
<path d="M13.3187 21C12.7692 21 12.3297 20.5443 12.3297 19.9747C12.3297 19.4051 12.7692 18.9494 13.3187 18.9494C17.011 18.9494 20.022 15.8278 20.022 12C20.022 8.17215 17.011 5.05063 13.3187 5.05063C9.62637 5.05063 6.61538 8.17215 6.61538 12C6.61538 12.5696 6.17582 13.0253 5.62637 13.0253C5.07692 13.0253 4.63736 12.5696 4.63736 12C4.63736 7.03291 8.52747 3 13.3187 3C18.1099 3 22 7.03291 22 12C22 16.9671 18.0989 21 13.3187 21Z" fill="#333333"/>
</svg>
