<svg width="24" height="24" viewBox="0 0 24 24" fill="none" xmlns="http://www.w3.org/2000/svg">
<path fill-rule="evenodd" clip-rule="evenodd" d="M5.03 3C3.91 3 3 3.91 3 5.03V18.96C3 20.09 3.91 21 5.03 21H18.96C20.08 21 20.99 20.09 20.99 18.97V8.05C20.99 7.53 20.79 7.03 20.43 6.65L17.6 3.64C17.21 3.23 16.68 3 16.12 3H5.03ZM4.48 5.03C4.48 4.72 4.73 4.48 5.03 4.48H7.77V8.12C7.77 9.08 8.55 9.86 9.51 9.86H14.49C15.45 9.86 16.23 9.08 16.23 8.12V4.49C16.34 4.51 16.45 4.57 16.52 4.65L19.37 7.67C19.47 7.77 19.52 7.91 19.52 8.05V18.96C19.52 19.27 19.27 19.51 18.97 19.51H17.72V14.88C17.72 13.92 16.94 13.14 15.98 13.14H8.02C7.06 13.14 6.28 13.92 6.28 14.88V19.51H5.03C4.72 19.51 4.48 19.26 4.48 18.96V5.03ZM9.26 8.12V4.48H14.74V8.12C14.74 8.26 14.63 8.37 14.49 8.37H9.51C9.37 8.37 9.26 8.26 9.26 8.12ZM8.02 14.63H15.98C16.12 14.63 16.23 14.74 16.23 14.88V19.51H7.77V14.88C7.77 14.75 7.88 14.63 8.02 14.63Z" fill="#333333"/>
</svg>
