<svg width="24" height="24" viewBox="0 0 24 24" fill="none" xmlns="http://www.w3.org/2000/svg">
<path d="M10.5597 17.3455C6.38963 17.3455 3 13.9079 3 9.66686C3 5.42587 6.38963 2 10.5597 2C14.7298 2 18.1194 5.43768 18.1194 9.66686C18.1194 13.896 14.7181 17.3455 10.5597 17.3455ZM10.5597 3.9492C7.44962 3.9492 4.92196 6.5127 4.92196 9.66686C4.92196 12.821 7.44962 15.3845 10.5597 15.3845C13.6698 15.3845 16.1858 12.821 16.1858 9.66686C16.1858 6.5127 13.6581 3.9492 10.5597 3.9492Z" fill="#333333"/>
<path d="M19.5521 22C19.1328 22 18.7251 21.8228 18.4339 21.4802L14.0775 16.2469C13.5649 15.6208 13.6348 14.6875 14.2522 14.1677C14.8695 13.6361 15.7897 13.7188 16.3023 14.3449L20.6587 19.5783C21.1712 20.2044 21.1013 21.1376 20.484 21.6574C20.2277 21.8819 19.8899 22 19.5521 22Z" fill="#333333"/>
<path d="M15.5296 13.3895L13.3036 15.2936L14.6253 16.8829L16.8513 14.9788L15.5296 13.3895Z" fill="#333333"/>
</svg>
