<svg width="24" height="24" viewBox="0 0 24 24" fill="none" xmlns="http://www.w3.org/2000/svg">
<path d="M21.5 3.44886C21.5 3.41456 21.5 3.38026 21.5 3.34597C21.5 3.26594 21.4771 3.19735 21.4543 3.12876C21.4428 3.09446 21.4314 3.06017 21.42 3.0373C21.3742 2.93442 21.3171 2.84296 21.2371 2.76294C21.157 2.68291 21.0656 2.62575 20.9627 2.58002C20.9284 2.56859 20.9055 2.55716 20.8712 2.54573C20.8027 2.52286 20.7226 2.51143 20.6426 2.5C20.6083 2.5 20.574 2.5 20.5397 2.5C20.4597 2.5 20.3797 2.52286 20.2997 2.54573C20.2768 2.55716 20.2425 2.55716 20.2196 2.56859C20.2082 2.56859 20.2082 2.56859 20.1968 2.58002L3.36912 10.3081C2.84325 10.5481 2.51173 11.0511 2.5003 11.6342C2.48886 12.2172 2.80896 12.7316 3.32339 12.9832L8.45628 15.5439L11.017 20.6769C11.2685 21.1799 11.7829 21.5 12.3431 21.5C12.3545 21.5 12.3545 21.5 12.366 21.5C12.9376 21.4886 13.452 21.157 13.6921 20.6312L21.42 3.78039C21.42 3.76895 21.42 3.76895 21.4314 3.75752C21.4428 3.73466 21.4428 3.70036 21.4543 3.6775C21.4771 3.6089 21.5 3.52888 21.5 3.44886ZM17.979 4.72924L8.94785 13.7605L4.77523 11.6685L17.979 4.72924ZM12.3317 19.225L10.2511 15.0523L19.2708 6.03249L12.3317 19.225Z" fill="#333333"/>
</svg>
