<svg width="24" height="24" viewBox="0 0 24 24" fill="none" xmlns="http://www.w3.org/2000/svg">
<path d="M12 16.2518C9.57042 16.2518 7.58685 14.3433 7.58685 12.0056C7.58685 9.66798 9.57042 7.75946 12 7.75946C14.4296 7.75946 16.4131 9.66798 16.4131 12.0056C16.4131 14.3433 14.4413 16.2518 12 16.2518ZM12 9.61152C10.6268 9.61152 9.51174 10.6844 9.51174 12.0056C9.51174 13.3269 10.6268 14.3998 12 14.3998C13.3732 14.3998 14.4883 13.3269 14.4883 12.0056C14.4883 10.6844 13.3732 9.61152 12 9.61152Z" fill="#333333"/>
<path d="M14.007 22H9.99296L9.12441 21.4128L8.46714 19.6849L6.85915 18.7928L4.96948 19.109L4.00704 18.6798L2 15.3258L2.0939 14.3094L3.32629 12.8978V11.1022L2.0939 9.69057L2 8.6742L4.00704 5.33145L4.96948 4.90231L6.85915 5.21852L8.46714 4.32637L9.12441 2.59853L9.99296 2H14.007L14.8756 2.58724L15.5329 4.31508L17.1408 5.20723L19.0305 4.89102L19.993 5.32016L22 8.6629L21.9061 9.67928L20.6737 11.0909V12.8752L21.9061 14.2868L22 15.3032L19.993 18.646L19.0305 19.0751L17.1408 18.7589L15.5329 19.651L14.8756 21.3789L14.007 22ZM10.6385 20.2157H13.3615L13.9131 18.7702L14.3239 18.3072L16.5188 17.0875L17.1408 16.9859L18.7254 17.2456L20.0869 14.9757L19.054 13.7899L18.8427 13.214V10.786L19.054 10.2101L20.0869 9.02428L18.7254 6.75438L17.1408 7.02541L16.5188 6.92377L14.3239 5.70412L13.9131 5.24111L13.3615 3.7843H10.6385L10.0869 5.22981L9.68779 5.70412L7.49296 6.91248L6.87089 7.02541L5.28638 6.75438L3.92488 9.02428L4.95775 10.2101L5.16901 10.786V13.214L4.95775 13.7899L3.92488 14.9757L5.28638 17.2456L6.87089 16.9859L7.49296 17.0875L9.68779 18.3072L10.0986 18.7702L10.6385 20.2157Z" fill="#333333"/>
</svg>
