<svg width="24" height="24" viewBox="0 0 24 24" fill="none" xmlns="http://www.w3.org/2000/svg">
<path d="M6.8123 15.818C4.71211 15.818 3 14.1007 3 11.9943C3 9.89926 4.71211 8.18203 6.8123 8.18203C8.14775 8.18203 9.4033 8.89182 10.0767 10.0481C10.4306 10.6205 10.6246 11.2959 10.6246 11.9828C10.6246 12.6697 10.442 13.3452 10.0881 13.9405C9.39188 15.0967 8.13633 15.818 6.8123 15.818ZM6.8123 10.0366C5.72796 10.0366 4.84908 10.9181 4.84908 11.9943C4.84908 13.0819 5.72796 13.9634 6.8123 13.9634C7.49715 13.9634 8.13633 13.597 8.50159 13.0017C8.68421 12.7041 8.77552 12.3492 8.77552 11.9943C8.77552 11.6394 8.68421 11.3074 8.50159 11.0097C8.13633 10.403 7.49715 10.0366 6.8123 10.0366Z" fill="#333333"/>
<path d="M17.1877 9.6245C15.8637 9.6245 14.6081 8.91471 13.9119 7.76989C13.9119 7.76989 13.9119 7.75844 13.9004 7.75844C13.5466 7.15169 13.3754 6.49914 13.3754 5.81225C13.3754 3.71723 15.0875 2 17.1877 2C19.2879 2 21 3.70578 21 5.81225C20.9886 7.90727 19.2879 9.6245 17.1877 9.6245ZM15.4984 6.81969C15.8523 7.40355 16.5029 7.76989 17.1763 7.76989C18.2606 7.76989 19.1395 6.88838 19.1395 5.8008C19.1395 4.72467 18.2606 3.84316 17.1763 3.84316C16.0919 3.84316 15.2131 4.71322 15.2131 5.8008C15.2245 6.1557 15.3158 6.49914 15.4984 6.81969Z" fill="#333333"/>
<path d="M17.1877 22C15.0875 22 13.3754 20.2942 13.3754 18.1878C13.3754 17.5009 13.558 16.8254 13.9119 16.2301C14.6081 15.0738 15.8523 14.3641 17.1877 14.3641C19.2879 14.3641 21 16.0813 21 18.1878C20.9886 20.2942 19.2879 22 17.1877 22ZM17.1877 16.2301C16.5029 16.2301 15.8523 16.5965 15.4984 17.1918C15.3272 17.4894 15.2245 17.8329 15.2245 18.1992C15.2245 19.2753 16.1034 20.1568 17.1877 20.1568C18.272 20.1568 19.1509 19.2753 19.1509 18.1992C19.1395 17.1116 18.2606 16.2301 17.1877 16.2301Z" fill="#333333"/>
<path d="M9.27774 11.4104C8.98098 11.4104 8.68421 11.2616 8.52441 10.9754C8.2733 10.5518 8.41027 10.0137 8.82118 9.76188L14.2543 6.52204C14.6766 6.27018 15.2131 6.40756 15.4642 6.83114C15.7153 7.25472 15.5783 7.79279 15.156 8.04465L9.72289 11.2845C9.58592 11.3646 9.42613 11.4104 9.27774 11.4104Z" fill="#333333"/>
<path d="M14.6994 17.5924C14.551 17.5924 14.3912 17.5581 14.2543 17.4665L8.83259 14.2267C8.41027 13.9748 8.2733 13.4367 8.52441 13.0132C8.77552 12.601 9.3234 12.4637 9.73431 12.7155L15.156 15.9554C15.5783 16.2072 15.7153 16.7453 15.4642 17.1689C15.293 17.4436 15.0076 17.5924 14.6994 17.5924Z" fill="#333333"/>
</svg>
