<svg width="24" height="24" viewBox="0 0 24 24" fill="none" xmlns="http://www.w3.org/2000/svg">
<path d="M17.725 15.8727C17.4983 15.8727 17.2716 15.7872 17.0989 15.616C16.7534 15.2736 16.7534 14.7173 17.0989 14.375L19.4955 12L17.0989 9.625C16.7534 9.28266 16.7534 8.72635 17.0989 8.38401C17.4443 8.04167 18.0057 8.04167 18.3511 8.38401L22 12L18.3511 15.616C18.1784 15.7872 17.9517 15.8727 17.725 15.8727Z" fill="#333333"/>
<path d="M20.6182 12.8773H11.2153C10.7295 12.8773 10.3301 12.4814 10.3301 12C10.3301 11.5186 10.7295 11.1227 11.2153 11.1227H20.6182C21.104 11.1227 21.5034 11.5186 21.5034 12C21.5034 12.4814 21.104 12.8773 20.6182 12.8773Z" fill="#333333"/>
<path d="M13.7307 21.5H5.375C4.06875 21.5 3 20.4409 3 19.1464V4.8536C3 3.55912 4.06875 2.5 5.375 2.5H13.7307C15.0369 2.5 16.1057 3.55912 16.1057 4.8536V7.8384C16.1057 8.30912 15.717 8.69426 15.242 8.69426C14.767 8.69426 14.3784 8.30912 14.3784 7.8384V4.8536C14.3784 4.50056 14.0869 4.21171 13.7307 4.21171H5.375C5.01875 4.21171 4.72727 4.50056 4.72727 4.8536V19.1464C4.72727 19.4994 5.01875 19.7883 5.375 19.7883H13.7307C14.0869 19.7883 14.3784 19.4994 14.3784 19.1464V16.1616C14.3784 15.6909 14.767 15.3057 15.242 15.3057C15.717 15.3057 16.1057 15.6909 16.1057 16.1616V19.1464C16.1057 20.4409 15.0369 21.5 13.7307 21.5Z" fill="#333333"/>
</svg>
