<svg width="24" height="24" viewBox="0 0 24 24" fill="none" xmlns="http://www.w3.org/2000/svg">
<path d="M20.3939 3.5H3.60608C2.99159 3.5 2.5 3.99419 2.5 4.61192C2.5 5.22965 2.99159 5.72384 3.60608 5.72384H20.3939C21.0084 5.72384 21.5 5.22965 21.5 4.61192C21.5 3.99419 21.0084 3.5 20.3939 3.5Z" fill="#333333"/>
<path d="M16.2031 8.42951H3.60608C2.99159 8.42951 2.5 8.92369 2.5 9.54142C2.5 10.1592 2.99159 10.6533 3.60608 10.6533H16.2031C16.8176 10.6533 17.3092 10.1592 17.3092 9.54142C17.3092 8.92369 16.8053 8.42951 16.2031 8.42951Z" fill="#333333"/>
<path d="M12.0123 13.3467H3.60608C2.99159 13.3467 2.5 13.8408 2.5 14.4586C2.5 15.0763 2.99159 15.5705 3.60608 15.5705H12.0123C12.6268 15.5705 13.1184 15.0763 13.1184 14.4586C13.1184 13.8408 12.6268 13.3467 12.0123 13.3467Z" fill="#333333"/>
<path d="M7.80919 18.2762H3.60608C2.99159 18.2762 2.5 18.7703 2.5 19.3881C2.5 20.0058 2.99159 20.5 3.60608 20.5H7.80919C8.42367 20.5 8.91527 20.0058 8.91527 19.3881C8.91527 18.7703 8.42367 18.2762 7.80919 18.2762Z" fill="#333333"/>
</svg>
