<svg width="24" height="24" viewBox="0 0 24 24" fill="none" xmlns="http://www.w3.org/2000/svg">
<path d="M20.3939 18.2762H3.60608C2.99159 18.2762 2.5 18.7703 2.5 19.3881C2.5 20.0058 2.99159 20.5 3.60608 20.5H20.3939C21.0084 20.5 21.5 20.0058 21.5 19.3881C21.5 18.7703 21.0084 18.2762 20.3939 18.2762Z" fill="#333333"/>
<path d="M16.2031 13.3467H3.60608C2.99159 13.3467 2.5 13.8408 2.5 14.4586C2.5 15.0763 2.99159 15.5705 3.60608 15.5705H16.2031C16.8176 15.5705 17.3092 15.0763 17.3092 14.4586C17.3092 13.8408 16.8053 13.3467 16.2031 13.3467Z" fill="#333333"/>
<path d="M12.0123 8.42951H3.60608C2.99159 8.42951 2.5 8.92369 2.5 9.54142C2.5 10.1592 2.99159 10.6533 3.60608 10.6533H12.0123C12.6268 10.6533 13.1184 10.1592 13.1184 9.54142C13.1184 8.92369 12.6268 8.42951 12.0123 8.42951Z" fill="#333333"/>
<path d="M7.80919 3.5H3.60608C2.99159 3.5 2.5 3.99419 2.5 4.61192C2.5 5.22965 2.99159 5.72384 3.60608 5.72384H7.80919C8.42367 5.72384 8.91527 5.22965 8.91527 4.61192C8.91527 3.99419 8.42367 3.5 7.80919 3.5Z" fill="#333333"/>
</svg>
