<svg width="24" height="24" viewBox="0 0 24 24" fill="none" xmlns="http://www.w3.org/2000/svg">
<path d="M5.19581 16.6086L1.80453 13.8968C1.46219 13.6212 1.398 13.1141 1.66545 12.7724C1.93291 12.4196 2.42502 12.3535 2.76735 12.6291L4.91766 14.3488L6.58656 12.133C6.85401 11.7802 7.34612 11.7141 7.68846 11.9897C8.0308 12.2542 8.09498 12.7613 7.82753 13.1141L5.19581 16.6086Z" fill="#333333"/>
<path d="M16.7604 11.9787C16.5785 11.9787 16.386 11.9125 16.2469 11.7692C15.926 11.4716 15.8939 10.9645 16.1827 10.6338L19.0391 7.33766L22.2378 10.281C22.5588 10.5786 22.5908 11.0857 22.302 11.4164C22.0132 11.7472 21.521 11.7802 21.2001 11.4826L19.1675 9.60855L17.3488 11.7031C17.1883 11.8905 16.9744 11.9787 16.7604 11.9787Z" fill="#333333"/>
<path d="M4.76789 14.3598C4.35067 14.3598 3.97623 14.0511 3.90135 13.6212C3.27016 10.2369 4.65021 6.81955 7.4424 4.92347C10.2239 3.01636 13.8184 3.02738 16.5999 4.94551C17.0065 5.22111 17.1134 5.79434 16.846 6.21324C16.5785 6.63214 16.0222 6.75341 15.6157 6.46679C13.4333 4.96756 10.6197 4.95654 8.42662 6.45577C6.24422 7.95499 5.15302 10.6338 5.65583 13.2905C5.75211 13.7865 5.43117 14.2606 4.94976 14.3598C4.88557 14.3488 4.83208 14.3598 4.76789 14.3598Z" fill="#333333"/>
<path d="M11.9998 20.5C10.4058 20.5 8.80106 20.015 7.41031 19.0559C7.00378 18.7803 6.8968 18.2071 7.16425 17.7882C7.4317 17.3693 7.988 17.259 8.39453 17.5346C10.5769 19.0449 13.3905 19.0449 15.5836 17.5456C17.766 16.0464 18.8572 13.3676 18.3544 10.7109C18.2581 10.2149 18.5791 9.74084 19.0605 9.64162C19.5419 9.54241 20.0126 9.87312 20.0982 10.3692C20.7294 13.7535 19.3493 17.1708 16.5571 19.0669C15.1771 20.026 13.5938 20.5 11.9998 20.5Z" fill="#333333"/>
</svg>
