<svg width="24" height="24" viewBox="0 0 24 24" fill="none" xmlns="http://www.w3.org/2000/svg">
<path d="M15.1329 14.5078C14.9325 14.5078 14.7321 14.432 14.5844 14.2695L12.0738 11.6913L9.56329 14.2695C9.25738 14.5836 8.7616 14.5836 8.4557 14.2695C8.14979 13.9553 8.14979 13.4462 8.4557 13.132L12.0738 9.41638L15.692 13.132C15.9979 13.4462 15.9979 13.9553 15.692 14.2695C15.5338 14.432 15.3333 14.5078 15.1329 14.5078Z" fill="#333333"/>
<path d="M12.0738 20C11.5992 20 11.2089 19.5992 11.2089 19.1117V10.6622C11.2089 10.1747 11.5992 9.77387 12.0738 9.77387C12.5485 9.77387 12.9388 10.1747 12.9388 10.6622V19.1117C12.9388 19.5992 12.5485 20 12.0738 20Z" fill="#333333"/>
<path d="M17.6435 17.3568C17.1688 17.3568 16.7785 16.9668 16.7785 16.4794C16.7785 15.9919 17.1477 15.6019 17.6224 15.6019C19.1097 15.6019 20.2911 14.3886 20.2911 12.8937C20.2911 11.3988 19.1097 10.1855 17.654 10.1855C17.1899 10.2722 16.7363 9.94719 16.6519 9.47055C16.5675 8.99391 16.8734 8.53893 17.3376 8.45227C17.4536 8.4306 17.538 8.4306 17.654 8.4306C20.0485 8.4306 22 10.4347 22 12.8937C22 15.3527 20.038 17.3568 17.6435 17.3568Z" fill="#333333"/>
<path d="M6.3038 17.3568C3.93038 17.3243 2 15.3311 2 12.8937C2 10.4347 3.95148 8.4306 6.34599 8.4306C6.45148 8.4306 6.54641 8.4306 6.66245 8.45227C7.12658 8.53893 7.43249 8.99391 7.3481 9.47055C7.26371 9.94719 6.82068 10.2613 6.35654 10.1747C4.8903 10.1747 3.70886 11.3879 3.70886 12.8829C3.70886 14.367 4.87975 15.5802 6.31435 15.5911C6.78903 15.5911 7.16878 15.9919 7.15823 16.4794C7.15823 16.9668 6.77848 17.3568 6.3038 17.3568Z" fill="#333333"/>
<path d="M17.4747 10.1963C17.0844 10.1963 16.7363 9.92552 16.6414 9.52471C16.1245 7.30399 14.2046 5.75491 11.9895 5.75491C9.77426 5.75491 7.85443 7.30399 7.33755 9.51388C7.23207 9.97969 6.76793 10.2722 6.3038 10.1638C5.85021 10.0555 5.5654 9.57888 5.67089 9.10223C6.37764 6.10156 8.98312 4 11.9895 4C14.9958 4 17.6013 6.10156 18.308 9.11307C18.4135 9.58971 18.1392 10.0555 17.6751 10.1747C17.6118 10.1855 17.538 10.1963 17.4747 10.1963Z" fill="#333333"/>
</svg>
