<svg width="24" height="24" viewBox="0 0 24 24" fill="none" xmlns="http://www.w3.org/2000/svg">
<path d="M9.7347 12.7389C7.34508 12.7389 5.39954 10.7827 5.39954 8.36944C5.39954 5.95615 7.34508 4 9.7347 4C12.1243 4 14.0698 5.95615 14.0698 8.36944C14.0804 10.7827 12.1349 12.7389 9.7347 12.7389ZM9.7347 5.74352C8.29669 5.74352 7.13361 6.92359 7.13361 8.36944C7.13361 9.81528 8.30727 10.9953 9.7347 10.9953C11.1621 10.9953 12.3358 9.81528 12.3358 8.36944C12.3464 6.92359 11.1727 5.74352 9.7347 5.74352Z" fill="#333333"/>
<path d="M2.87247 20C2.84075 20 2.79845 20 2.76673 19.9894C2.29092 19.9362 1.95257 19.5003 2.00544 19.0219C2.52354 14.7694 5.84363 11.5588 9.7347 11.5588C13.6258 11.5588 16.9458 14.7694 17.464 19.0219C17.5168 19.5003 17.1785 19.9362 16.7027 19.9894C16.2268 20.0425 15.7933 19.7023 15.7405 19.2239C15.3281 15.8432 12.7482 13.2917 9.7347 13.2917C6.72124 13.2917 4.14129 15.8432 3.72893 19.2239C3.67606 19.6811 3.30598 20 2.87247 20Z" fill="#333333"/>
<path d="M21.1647 19.9256C20.6995 19.9256 20.3294 19.5535 20.3294 19.0857C20.3294 14.493 16.2163 12.59 15.751 12.388C15.4338 12.2498 15.2224 11.9309 15.2435 11.5801C15.2541 11.2292 15.4867 10.9209 15.8145 10.8146C15.8356 10.8146 17.4217 10.1661 17.4217 8.3588C17.4217 7.10432 16.5441 6.0093 15.3281 5.75415C14.8734 5.65847 14.5879 5.21196 14.6725 4.76545C14.7677 4.30831 15.2118 4.02126 15.6559 4.10631C17.6437 4.5103 19.0923 6.30698 19.0923 8.3588C19.0923 9.84718 18.4156 10.889 17.7071 11.5482C19.3778 12.6326 22 14.9821 22 19.0857C22 19.5535 21.6299 19.9256 21.1647 19.9256Z" fill="#333333"/>
</svg>
