<svg width="24" height="24" viewBox="0 0 24 24" fill="none" xmlns="http://www.w3.org/2000/svg">
<path d="M12 12.5373C9.19211 12.5373 6.90635 10.2852 6.90635 7.51865C6.90635 4.75211 9.19211 2.5 12 2.5C14.8079 2.5 17.0937 4.75211 17.0937 7.51865C17.0937 10.2852 14.8079 12.5373 12 12.5373ZM12 4.30626C10.2016 4.30626 8.7396 5.74669 8.7396 7.51865C8.7396 9.29061 10.2016 10.731 12 10.731C13.7984 10.731 15.2604 9.29061 15.2604 7.51865C15.2604 5.74669 13.7984 4.30626 12 4.30626Z" fill="#333333"/>
<path d="M20.5861 21.5C20.1336 21.5 19.7391 21.1685 19.6811 20.7226C19.1706 17.0644 15.8637 14.3093 12 14.3093C8.13625 14.3093 4.84104 17.0644 4.31891 20.7226C4.24929 21.2142 3.78518 21.5686 3.28625 21.4886C2.78733 21.42 2.43925 20.9627 2.50886 20.4711C3.14702 15.9326 7.23123 12.503 12 12.503C16.7688 12.503 20.853 15.9326 21.4911 20.4711C21.5608 20.9627 21.2127 21.42 20.7137 21.4886C20.6673 21.5 20.6325 21.5 20.5861 21.5Z" fill="#333333"/>
</svg>
