<svg width="24" height="24" viewBox="0 0 24 24" fill="none" xmlns="http://www.w3.org/2000/svg">
<path d="M12.0635 5H11.9827C8.10502 5 5.12752 7.52138 4.03116 8.60362C3.4195 9.21382 2 10.7451 2 11.9194C2 13.8306 6.51241 18.9539 11.9365 19H12.0173C15.9411 19 18.8956 16.5016 19.9804 15.4194C20.5805 14.8207 22 13.301 22 12.0806C22 10.1118 17.5915 5.04605 12.0635 5ZM12.0519 17.1349C12.0173 17.1349 11.9942 17.1349 11.9596 17.1349C7.7011 17.1003 4.06578 12.9786 3.86959 12V11.9539C4.05424 10.9753 7.7011 6.86513 11.9942 6.86513H12.0519C16.4605 6.89967 19.9919 11.0444 20.142 12.0345V12.0806C19.9804 13.0938 16.5413 17.1349 12.0519 17.1349Z" fill="#333333"/>
<path d="M12.0058 8.24671C9.92845 8.24671 8.24351 9.92763 8.24351 12C8.24351 14.0724 9.92845 15.7533 12.0058 15.7533C14.0831 15.7533 15.768 14.0724 15.768 12C15.768 9.92763 14.0831 8.24671 12.0058 8.24671ZM13.7138 12C13.7138 12.9441 12.9521 13.7039 12.0058 13.7039C11.0594 13.7039 10.2977 12.9441 10.2977 12C10.2977 11.0559 11.0594 10.2961 12.0058 10.2961C12.9521 10.2961 13.7138 11.0559 13.7138 12Z" fill="#333333"/>
</svg>
