<svg width="24" height="24" viewBox="0 0 24 24" fill="none" xmlns="http://www.w3.org/2000/svg">
<path fill-rule="evenodd" clip-rule="evenodd" d="M8.52 20.0202L17.21 4.98025C17.57 4.36025 17.48 3.62025 17 3.34025C16.52 3.06025 15.84 3.35025 15.48 3.98025L6.79 19.0202C6.43 19.6502 6.52 20.3802 7 20.6602C7.48 20.9402 8.16 20.6502 8.52 20.0202ZM11.94 19.0002C11.59 19.0002 11.24 18.9702 10.89 18.9302L11.93 17.1402H11.97H12.06C16.55 17.1402 19.99 13.1002 20.15 12.0902V12.0302C20.06 11.4502 18.81 9.79025 16.91 8.50025L17.85 6.87025C20.37 8.54025 22 10.8802 22 12.0802C22 13.3002 20.58 14.8202 19.98 15.4202C18.9 16.5002 15.94 19.0002 12.02 19.0002H11.94ZM15.77 12.0002C15.77 13.8102 14.48 15.3302 12.77 15.6802L15.58 10.8102C15.7 11.1802 15.77 11.5802 15.77 12.0002ZM8.43 13.1702L11.23 8.32025C9.53 8.68025 8.24 10.1902 8.24 12.0002C8.24 12.4102 8.31 12.8002 8.43 13.1702ZM12.05 6.86025H12.08L13.12 5.06025C12.77 5.02025 12.42 4.99025 12.07 4.99025H11.98C8.1 4.99025 5.12 7.51025 4.03 8.59025C3.42 9.21025 2 10.7402 2 11.9202C2 13.0802 3.66 15.4202 6.17 17.0902L7.11 15.4502C5.24 14.1802 3.97 12.5602 3.86 12.0002V11.9502C4.05 10.9702 7.7 6.86025 11.99 6.86025H12.05Z" fill="#333333"/>
</svg>
