<svg width="24" height="24" viewBox="0 0 24 24" fill="none" xmlns="http://www.w3.org/2000/svg">
<path d="M12.002 18.5C12.5902 18.5 13.067 18.0251 13.067 17.4394C13.067 16.8536 12.5902 16.3788 12.002 16.3788C11.4139 16.3788 10.937 16.8536 10.937 17.4394C10.937 18.0251 11.4139 18.5 12.002 18.5Z" fill="#333333"/>
<path fill-rule="evenodd" clip-rule="evenodd" d="M12.002 8.41777C11.418 8.41777 10.937 8.88535 10.937 9.47839V14.4394C10.937 15.021 11.418 15.5 12.002 15.5C12.5861 15.5 13.067 15.021 13.067 14.4394V9.47839C13.067 8.88535 12.5861 8.41777 12.002 8.41777Z" fill="#333333"/>
<path d="M20.1327 21.5H3.87138C3.20719 21.5 2.6117 21.1579 2.26815 20.599C1.9246 20.0402 1.91315 19.3559 2.22235 18.7743L10.353 3.4922C10.6851 2.87635 11.3149 2.5 12.002 2.5C12.6891 2.5 13.3304 2.87635 13.6511 3.4922L21.7817 18.7743C22.0909 19.3559 22.068 20.0402 21.7359 20.599C21.3924 21.1693 20.7969 21.5 20.1327 21.5ZM12.002 4.16507C11.9448 4.16507 11.8761 4.18788 11.8303 4.26771L3.69961 19.5498C3.6538 19.6297 3.6767 19.6981 3.69961 19.7437C3.72251 19.7893 3.77977 19.8349 3.87138 19.8349H20.1327C20.2243 19.8349 20.2701 19.7893 20.3045 19.7437C20.3274 19.6981 20.3503 19.6297 20.3045 19.5498L12.1738 4.26771C12.128 4.18788 12.0593 4.16507 12.002 4.16507Z" fill="#333333"/>
</svg>
